<svg id="my-svg" width="100%" xmlns="http://www.w3.org/2000/svg" xmlns:xlink="http://www.w3.org/1999/xlink" style="max-width: 1094.09px; background-color: white;" viewBox="-489.5888671875 -553.7896728515625 1094.091796875 1238.579345703125" role="graphics-document document" aria-roledescription="architecture"><style>#my-svg{font-family:"trebuchet ms",verdana,arial,sans-serif;font-size:16px;fill:#000000;}@keyframes edge-animation-frame{from{stroke-dashoffset:0;}}@keyframes dash{to{stroke-dashoffset:0;}}#my-svg .edge-animation-slow{stroke-dasharray:9,5!important;stroke-dashoffset:900;animation:dash 50s linear infinite;stroke-linecap:round;}#my-svg .edge-animation-fast{stroke-dasharray:9,5!important;stroke-dashoffset:900;animation:dash 20s linear infinite;stroke-linecap:round;}#my-svg .error-icon{fill:#552222;}#my-svg .error-text{fill:#552222;stroke:#552222;}#my-svg .edge-thickness-normal{stroke-width:1px;}#my-svg .edge-thickness-thick{stroke-width:3.5px;}#my-svg .edge-pattern-solid{stroke-dasharray:0;}#my-svg .edge-thickness-invisible{stroke-width:0;fill:none;}#my-svg .edge-pattern-dashed{stroke-dasharray:3;}#my-svg .edge-pattern-dotted{stroke-dasharray:2;}#my-svg .marker{fill:#666;stroke:#666;}#my-svg .marker.cross{stroke:#666;}#my-svg svg{font-family:"trebuchet ms",verdana,arial,sans-serif;font-size:16px;}#my-svg p{margin:0;}#my-svg .edge{stroke-width:3;stroke:#666;fill:none;}#my-svg .arrow{fill:#666;}#my-svg .node-bkg{fill:none;stroke:hsl(0, 0%, 83.3333333333%);stroke-width:2px;stroke-dasharray:8;}#my-svg .node-icon-text{display:flex;align-items:center;}#my-svg .node-icon-text&gt;div{color:#fff;margin:1px;height:fit-content;text-align:center;overflow:hidden;display:-webkit-box;-webkit-box-orient:vertical;}#my-svg :root{--mermaid-font-family:"trebuchet ms",verdana,arial,sans-serif;}</style><g/><g class="architecture-edges"><g><path d="M -370.002916846793,345.80153206549005 L -268.51666290310436,345.80153206549005 L-167.0304089594157,345.80153206549005" class="edge" id="L_desktop_webapi_0"/><polygon points="0,6.666666666666667 13.333333333333334,0 13.333333333333334,13.333333333333334" transform="translate(-372.002916846793,339.13486539882337)" class="arrow"/><polygon points="13.333333333333334,6.666666666666667 0,13.333333333333334 0,0" transform="translate(-178.36374229274904,339.13486539882337)" class="arrow"/></g><g><path d="M -370.002916846793,-233.5643200759485 L -268.51666290310436,-233.5643200759485 L-167.0304089594157,-233.5643200759485" class="edge" id="L_mobile_gateway_0"/><polygon points="0,6.666666666666667 13.333333333333334,0 13.333333333333334,13.333333333333334" transform="translate(-372.002916846793,-240.23098674261516)" class="arrow"/><polygon points="13.333333333333334,6.666666666666667 0,13.333333333333334 0,0" transform="translate(-178.36374229274904,-240.23098674261516)" class="arrow"/></g><g><path d="M 73.79381585157361,-431.28970176209054 L 73.79381585157361,-332.4270109190195 L73.79381585157361,-233.5643200759485" class="edge" id="L_jun1_jun2_0"/></g><g><path d="M 73.79381585157361,-233.5643200759485 L 73.79381585157361,-135.38024926555687 L73.79381585157361,-37.19617845516527" class="edge" id="L_jun2_jun3_0"/></g><g><path d="M -87.0304089594157,-233.5643200759485 L -26.61829655392104,-233.5643200759485 L73.79381585157361,-233.5643200759485" class="edge" id="L_gateway_jun2_0"/><polygon points="0,6.666666666666667 13.333333333333334,0 13.333333333333334,13.333333333333334" transform="translate(-89.0304089594157,-240.23098674261516)" class="arrow"/></g><g><path d="M 73.79381585157361,-37.19617845516527 L 73.79381585157361,55.05839387711667 L73.79381585157361,147.3129662093986" class="edge" id="L_jun3_jun4_0"/></g><g><path d="M -87.0304089594157,345.80153206549005 L -26.61829655392104,345.80153206549005 L73.79381585157361,345.80153206549005" class="edge" id="L_webapi_jun5_0"/><polygon points="0,6.666666666666667 13.333333333333334,0 13.333333333333334,13.333333333333334" transform="translate(-89.0304089594157,339.13486539882337)" class="arrow"/></g><g><path d="M 73.79381585157361,345.80153206549005 L 73.79381585157361,246.55724913744433 L73.79381585157361,147.3129662093986" class="edge" id="L_jun5_jun4_0"/></g><g><path d="M 73.79381585157361,545.2897017620907 L 73.79381585157361,445.54561691379035 L73.79381585157361,345.80153206549005" class="edge" id="L_jun6_jun5_0"/></g><g><path d="M 73.79381585157361,-431.28970176209054 L 174.6208157609436,-431.28970176209054 L235.4478156703136,-431.28970176209054" class="edge" id="L_jun1_auth_0"/><polygon points="13.333333333333334,6.666666666666667 0,13.333333333333334 0,0" transform="translate(224.11448233698025,-437.95636842875723)" class="arrow"/></g><g><path d="M 73.79381585157361,-233.5643200759485 L 174.6208157609436,-233.5643200759485 L235.4478156703136,-233.5643200759485" class="edge" id="L_jun2_user_0"/><polygon points="13.333333333333334,6.666666666666667 0,13.333333333333334 0,0" transform="translate(224.11448233698025,-240.23098674261516)" class="arrow"/></g><g><path d="M 73.79381585157361,545.2897017620907 L 174.6208157609436,545.2897017620907 L235.4478156703136,545.2897017620907" class="edge" id="L_jun6_pred_0"/><polygon points="13.333333333333334,6.666666666666667 0,13.333333333333334 0,0" transform="translate(224.11448233698025,538.623035095424)" class="arrow"/></g><g><path d="M 315.4478156703136,-233.5643200759485 L 370.4753662585533,-233.5643200759485 L425.502916846793,-233.5643200759485" class="edge" id="L_user_s3-hold_0"/><polygon points="13.333333333333334,6.666666666666667 0,13.333333333333334 0,0" transform="translate(414.1695835134597,-240.23098674261516)" class="arrow"/></g><g><path d="M 465.502916846793,-193.5643200759485 L 465.502916846793,-135.38024926555687 L465.502916846793,-77.19617845516527" class="edge" id="L_s3-hold_s3-train_0"/><polygon points="0,0 13.333333333333334,0 6.666666666666667,13.333333333333334" transform="translate(458.83625018012634,-88.5295117884986)" class="arrow"/></g><g><path d="M 465.502916846793,2.803821544834733 L 465.502916846793,55.05839387711667 L465.502916846793,107.31296620939861" class="edge" id="L_s3-train_lambda_0"/><polygon points="0,0 13.333333333333334,0 6.666666666666667,13.333333333333334" transform="translate(458.83625018012634,95.97963287606528)" class="arrow"/></g><g><path d="M 425.502916846793,147.3129662093986 L 370.4753662585533,147.3129662093986 L315.4478156703136,147.3129662093986" class="edge" id="L_lambda_cort_0"/><polygon points="0,6.666666666666667 13.333333333333334,0 13.333333333333334,13.333333333333334" transform="translate(313.4478156703136,140.64629954273195)" class="arrow"/></g><g><path d="M 275.4478156703136,107.31296620939861 L 275.4978887640569,-37.306953815211635 L425.502916846793,-37.19617845516527" class="edge" id="L_cort_s3-train_0"/><polygon points="0,0 13.333333333333334,0 6.666666666666667,13.333333333333334" transform="translate(268.78114900364693,95.97963287606528)" class="arrow"/></g><g><path d="M 275.4478156703136,187.3129662093986 L 275.4478156703136,246.55724913744433 L275.4478156703136,305.80153206549005" class="edge" id="L_cort_s3-model_0"/><polygon points="0,0 13.333333333333334,0 6.666666666666667,13.333333333333334" transform="translate(268.78114900364693,294.46819873215674)" class="arrow"/></g><g><path d="M 275.4478156703136,385.80153206549005 L 275.4478156703136,445.54561691379035 L275.4478156703136,505.28970176209066" class="edge" id="L_s3-model_pred_0"/><polygon points="6.666666666666667,0 13.333333333333334,13.333333333333334 0,13.333333333333334" transform="translate(268.78114900364693,383.80153206549005)" class="arrow"/><polygon points="0,0 13.333333333333334,0 6.666666666666667,13.333333333333334" transform="translate(268.78114900364693,493.95636842875734)" class="arrow"/></g><g><path d="M 465.502916846793,187.3129662093986 L 465.502916846793,246.55724913744433 L465.502916846793,305.80153206549005" class="edge" id="L_lambda_dynamo-db_0"/><polygon points="6.666666666666667,0 13.333333333333334,13.333333333333334 0,13.333333333333334" transform="translate(458.83625018012634,185.3129662093986)" class="arrow"/><polygon points="0,0 13.333333333333334,0 6.666666666666667,13.333333333333334" transform="translate(458.83625018012634,294.46819873215674)" class="arrow"/></g></g><g class="architecture-services"><g id="service-mobile" class="architecture-service" transform="translate(-450.002916846793,-273.5643200759485)"><g dy="1em" alignment-baseline="middle" dominant-baseline="middle" text-anchor="middle" transform="translate(40, 80)"><g><rect class="background" style="stroke: none"/><text y="-10.1" style=""><tspan class="text-outer-tspan" x="0" y="-0.1em" dy="1.1em"><tspan font-style="normal" class="text-inner-tspan" font-weight="normal">Mobile</tspan><tspan font-style="normal" class="text-inner-tspan" font-weight="normal"> App</tspan></tspan></text></g></g><g><g><svg xmlns="http://www.w3.org/2000/svg" width="80" height="80" viewBox="0 0 24 24"><path fill="currentColor" d="M17 19H7V5h10m0-4H7c-1.11 0-2 .89-2 2v18a2 2 0 0 0 2 2h10a2 2 0 0 0 2-2V3a2 2 0 0 0-2-2"/></svg></g></g></g><g id="service-desktop" class="architecture-service" transform="translate(-450.002916846793,305.80153206549005)"><g dy="1em" alignment-baseline="middle" dominant-baseline="middle" text-anchor="middle" transform="translate(40, 80)"><g><rect class="background" style="stroke: none"/><text y="-10.1" style=""><tspan class="text-outer-tspan" x="0" y="-0.1em" dy="1.1em"><tspan font-style="normal" class="text-inner-tspan" font-weight="normal">Web</tspan><tspan font-style="normal" class="text-inner-tspan" font-weight="normal"> App</tspan></tspan></text></g></g><g><g><svg xmlns="http://www.w3.org/2000/svg" width="80" height="80" viewBox="0 0 24 24"><path fill="currentColor" d="M21 16H3V4h18m0-2H3c-1.11 0-2 .89-2 2v12a2 2 0 0 0 2 2h7v2H8v2h8v-2h-2v-2h7a2 2 0 0 0 2-2V4a2 2 0 0 0-2-2"/></svg></g></g></g><g id="service-webapi" class="architecture-service" transform="translate(-167.0304089594157,305.80153206549005)"><g dy="1em" alignment-baseline="middle" dominant-baseline="middle" text-anchor="middle" transform="translate(40, 80)"><g><rect class="background" style="stroke: none"/><text y="-10.1" style=""><tspan class="text-outer-tspan" x="0" y="-0.1em" dy="1.1em"><tspan font-style="normal" class="text-inner-tspan" font-weight="normal">Web</tspan><tspan font-style="normal" class="text-inner-tspan" font-weight="normal"> API</tspan></tspan></text></g></g><g><g><svg xmlns="http://www.w3.org/2000/svg" width="80" height="80" viewBox="0 0 24 24"><path fill="currentColor" d="M16.36 14c.08-.66.14-1.32.14-2s-.06-1.34-.14-2h3.38c.16.64.26 1.31.26 2s-.1 1.36-.26 2m-5.15 5.56c.6-1.11 1.06-2.31 1.38-3.56h2.95a8.03 8.03 0 0 1-4.33 3.56M14.34 14H9.66c-.1-.66-.16-1.32-.16-2s.06-1.35.16-2h4.68c.09.65.16 1.32.16 2s-.07 1.34-.16 2M12 19.96c-.83-1.2-1.5-2.53-1.91-3.96h3.82c-.41 1.43-1.08 2.76-1.91 3.96M8 8H5.08A7.92 7.92 0 0 1 9.4 4.44C8.8 5.55 8.35 6.75 8 8m-2.92 8H8c.35 1.25.8 2.45 1.4 3.56A8 8 0 0 1 5.08 16m-.82-2C4.1 13.36 4 12.69 4 12s.1-1.36.26-2h3.38c-.08.66-.14 1.32-.14 2s.06 1.34.14 2M12 4.03c.83 1.2 1.5 2.54 1.91 3.97h-3.82c.41-1.43 1.08-2.77 1.91-3.97M18.92 8h-2.95a15.7 15.7 0 0 0-1.38-3.56c1.84.63 3.37 1.9 4.33 3.56M12 2C6.47 2 2 6.5 2 12a10 10 0 0 0 10 10a10 10 0 0 0 10-10A10 10 0 0 0 12 2"/></svg></g></g></g><g id="service-gateway" class="architecture-service" transform="translate(-167.0304089594157,-273.5643200759485)"><g dy="1em" alignment-baseline="middle" dominant-baseline="middle" text-anchor="middle" transform="translate(40, 80)"><g><rect class="background" style="stroke: none"/><text y="-10.1" style=""><tspan class="text-outer-tspan" x="0" y="-0.1em" dy="1.1em"><tspan font-style="normal" class="text-inner-tspan" font-weight="normal">API</tspan><tspan font-style="normal" class="text-inner-tspan" font-weight="normal"> Gateway</tspan></tspan></text></g></g><g><g><svg xmlns="http://www.w3.org/2000/svg" width="80" height="80" viewBox="0 0 24 24"><path fill="currentColor" d="M20 9H8.22A2.97 2.97 0 0 0 4 8.8c-.64.56-1 1.36-1 2.2v9a1 1 0 0 0-1 1v1h8v-1a1 1 0 0 0-1-1v-7h11a2 2 0 0 0 2-2a2 2 0 0 0-2-2M6 12.5A1.5 1.5 0 0 1 4.5 11A1.5 1.5 0 0 1 6 9.5A1.5 1.5 0 0 1 7.5 11A1.5 1.5 0 0 1 6 12.5m4.5-.5L9 10h1.5l1.5 2zm4 0L13 10h1.5l1.5 2zm4 0L17 10h1.5l1.5 2z"/></svg></g></g></g><g id="service-auth" class="architecture-service" transform="translate(235.4478156703136,-471.28970176209054)"><g dy="1em" alignment-baseline="middle" dominant-baseline="middle" text-anchor="middle" transform="translate(40, 80)"><g><rect class="background" style="stroke: none"/><text y="-10.1" style=""><tspan class="text-outer-tspan" x="0" y="-0.1em" dy="1.1em"><tspan font-style="normal" class="text-inner-tspan" font-weight="normal">Auth</tspan></tspan></text></g></g><g><g><svg xmlns="http://www.w3.org/2000/svg" width="80" height="80" viewBox="0 0 24 24"><path fill="currentColor" d="M7 14c-1.1 0-2-.9-2-2s.9-2 2-2s2 .9 2 2s-.9 2-2 2m5.6-4c-.8-2.3-3-4-5.6-4c-3.3 0-6 2.7-6 6s2.7 6 6 6c2.6 0 4.8-1.7 5.6-4H16v4h4v-4h3v-4z"/></svg></g></g></g><g id="service-user" class="architecture-service" transform="translate(235.4478156703136,-273.5643200759485)"><g dy="1em" alignment-baseline="middle" dominant-baseline="middle" text-anchor="middle" transform="translate(40, 80)"><g><rect class="background" style="stroke: none"/><text y="-10.1" style=""><tspan class="text-outer-tspan" x="0" y="-0.1em" dy="1.1em"><tspan font-style="normal" class="text-inner-tspan" font-weight="normal">User</tspan></tspan></text></g></g><g><g><svg xmlns="http://www.w3.org/2000/svg" width="80" height="80" viewBox="0 0 24 24"><path fill="currentColor" d="M12 4a4 4 0 0 1 4 4a4 4 0 0 1-4 4a4 4 0 0 1-4-4a4 4 0 0 1 4-4m0 10c4.42 0 8 1.79 8 4v2H4v-2c0-2.21 3.58-4 8-4"/></svg></g></g></g><g id="service-cort" class="architecture-service" transform="translate(235.4478156703136,107.31296620939861)"><g dy="1em" alignment-baseline="middle" dominant-baseline="middle" text-anchor="middle" transform="translate(40, 80)"><g><rect class="background" style="stroke: none"/><text y="-10.1" style=""><tspan class="text-outer-tspan" x="0" y="-0.1em" dy="1.1em"><tspan font-style="normal" class="text-inner-tspan" font-weight="normal">Cortex</tspan></tspan></text></g></g><g><g><svg xmlns="http://www.w3.org/2000/svg" width="80" height="80" viewBox="0 0 24 24"><path fill="currentColor" d="M21.33 12.91c.09 1.55-.62 3.04-1.89 3.95l.77 1.49c.23.45.26.98.06 1.45c-.19.47-.58.84-1.06 1l-.79.25a1.69 1.69 0 0 1-1.86-.55L14.44 18c-.89-.15-1.73-.53-2.44-1.1c-.5.15-1 .23-1.5.23c-.88 0-1.76-.27-2.5-.79c-.53.16-1.07.23-1.62.22c-.79.01-1.57-.15-2.3-.45a4.1 4.1 0 0 1-2.43-3.61c-.08-.72.04-1.45.35-2.11c-.29-.75-.32-1.57-.07-2.33C2.3 7.11 3 6.32 3.87 5.82c.58-1.69 2.21-2.82 4-2.7c1.6-1.5 4.05-1.66 5.83-.37c.42-.11.86-.17 1.3-.17c1.36-.03 2.65.57 3.5 1.64c2.04.53 3.5 2.35 3.58 4.47c.05 1.11-.25 2.2-.86 3.13c.07.36.11.72.11 1.09m-5-1.41c.57.07 1.02.5 1.02 1.07a1 1 0 0 1-1 1h-.63c-.32.9-.88 1.69-1.62 2.29c.25.09.51.14.77.21c5.13-.07 4.53-3.2 4.53-3.25a2.59 2.59 0 0 0-2.69-2.49a1 1 0 0 1-1-1a1 1 0 0 1 1-1c1.23.03 2.41.49 3.33 1.3c.05-.29.08-.59.08-.89c-.06-1.24-.62-2.32-2.87-2.53c-1.25-2.96-4.4-1.32-4.4-.4c-.03.23.21.72.25.75a1 1 0 0 1 1 1c0 .55-.45 1-1 1c-.53-.02-1.03-.22-1.43-.56c-.48.31-1.03.5-1.6.56c-.57.05-1.04-.35-1.07-.9a.97.97 0 0 1 .88-1.1c.16-.02.94-.14.94-.77c0-.66.25-1.29.68-1.79c-.92-.25-1.91.08-2.91 1.29C6.75 5 6 5.25 5.45 7.2C4.5 7.67 4 8 3.78 9c1.08-.22 2.19-.13 3.22.25c.5.19.78.75.59 1.29c-.19.52-.77.78-1.29.59c-.73-.32-1.55-.34-2.3-.06c-.32.27-.32.83-.32 1.27c0 .74.37 1.43 1 1.83c.53.27 1.12.41 1.71.4q-.225-.39-.39-.81a1.038 1.038 0 0 1 1.96-.68c.4 1.14 1.42 1.92 2.62 2.05c1.37-.07 2.59-.88 3.19-2.13c.23-1.38 1.34-1.5 2.56-1.5m2 7.47l-.62-1.3l-.71.16l1 1.25zm-4.65-8.61a1 1 0 0 0-.91-1.03c-.71-.04-1.4.2-1.93.67c-.57.58-.87 1.38-.84 2.19a1 1 0 0 0 1 1c.57 0 1-.45 1-1c0-.27.07-.54.23-.76c.12-.1.27-.15.43-.15c.55.03 1.02-.38 1.02-.92"/></svg></g></g></g><g id="service-pred" class="architecture-service" transform="translate(235.4478156703136,505.28970176209066)"><g dy="1em" alignment-baseline="middle" dominant-baseline="middle" text-anchor="middle" transform="translate(40, 80)"><g><rect class="background" style="stroke: none"/><text y="-10.1" style=""><tspan class="text-outer-tspan" x="0" y="-0.1em" dy="1.1em"><tspan font-style="normal" class="text-inner-tspan" font-weight="normal">Prediction</tspan></tspan></text></g></g><g><g><svg xmlns="http://www.w3.org/2000/svg" width="80" height="80" viewBox="0 0 24 24"><path fill="currentColor" d="M9.5 3A6.5 6.5 0 0 1 16 9.5c0 1.61-.59 3.09-1.56 4.23l.27.27h.79l5 5l-1.5 1.5l-5-5v-.79l-.27-.27A6.52 6.52 0 0 1 9.5 16A6.5 6.5 0 0 1 3 9.5A6.5 6.5 0 0 1 9.5 3m0 2C7 5 5 7 5 9.5S7 14 9.5 14S14 12 14 9.5S12 5 9.5 5"/></svg></g></g></g><g id="service-lambda" class="architecture-service" transform="translate(425.502916846793,107.31296620939861)"><g dy="1em" alignment-baseline="middle" dominant-baseline="middle" text-anchor="middle" transform="translate(40, 80)"><g><rect class="background" style="stroke: none"/><text y="-10.1" style=""><tspan class="text-outer-tspan" x="0" y="-0.1em" dy="1.1em"><tspan font-style="normal" class="text-inner-tspan" font-weight="normal">Lambda</tspan><tspan font-style="normal" class="text-inner-tspan" font-weight="normal"> MQ</tspan></tspan></text></g></g><g><g><svg xmlns="http://www.w3.org/2000/svg" width="80" height="80" viewBox="0 0 256 256"><defs><linearGradient id="IconifyId19a8745f958e9c2fe0" x1="0%" x2="100%" y1="100%" y2="0%"><stop offset="0%" stop-color="#C8511B"/><stop offset="100%" stop-color="#F90"/></linearGradient></defs><path fill="url(#IconifyId19a8745f958e9c2fe0)" d="M0 0h256v256H0z"/><path fill="#FFF" d="M89.624 211.2H49.89l43.945-91.853l19.912 40.992zm7.079-100.63a3.22 3.22 0 0 0-2.887-1.805h-.01a3.2 3.2 0 0 0-2.886 1.82L41.913 213.022a3.203 3.203 0 0 0 2.893 4.58l46.848-.001a3.21 3.21 0 0 0 2.9-1.83l25.65-54.08a3.18 3.18 0 0 0-.016-2.762zM207.985 211.2h-39.477L105.174 78.624a3.21 3.21 0 0 0-2.897-1.824h-25.83l.03-32h50.626l63.042 132.573a3.21 3.21 0 0 0 2.897 1.827h14.943zm3.208-38.4h-16.121L132.03 40.227a3.21 3.21 0 0 0-2.9-1.827H73.273a3.206 3.206 0 0 0-3.208 3.197l-.035 38.4c0 .851.333 1.664.94 2.265c.6.602 1.414.938 2.267.938h27.017l63.337 132.576a3.2 3.2 0 0 0 2.893 1.824h44.709a3.203 3.203 0 0 0 3.207-3.2V176c0-1.766-1.434-3.2-3.207-3.2"/></svg></g></g></g><g id="service-s3-model" class="architecture-service" transform="translate(235.4478156703136,305.80153206549005)"><g dy="1em" alignment-baseline="middle" dominant-baseline="middle" text-anchor="middle" transform="translate(40, 80)"><g><rect class="background" style="stroke: none"/><text y="-10.1" style=""><tspan class="text-outer-tspan" x="0" y="-0.1em" dy="1.1em"><tspan font-style="normal" class="text-inner-tspan" font-weight="normal">Model</tspan><tspan font-style="normal" class="text-inner-tspan" font-weight="normal"> Bucket</tspan></tspan></text></g></g><g><g><svg xmlns="http://www.w3.org/2000/svg" width="80" height="80" viewBox="0 0 256 256"><defs><linearGradient id="IconifyId19a8745f958e9c2fe1" x1="0%" x2="100%" y1="100%" y2="0%"><stop offset="0%" stop-color="#1B660F"/><stop offset="100%" stop-color="#6CAE3E"/></linearGradient></defs><path fill="url(#IconifyId19a8745f958e9c2fe1)" d="M0 0h256v256H0z"/><path fill="#FFF" d="m194.675 137.256l1.229-8.652c11.33 6.787 11.478 9.59 11.475 9.667c-.02.016-1.952 1.629-12.704-1.015m-6.218-1.728c-19.584-5.926-46.857-18.438-57.894-23.654c0-.045.013-.086.013-.131c0-4.24-3.45-7.69-7.693-7.69c-4.237 0-7.687 3.45-7.687 7.69s3.45 7.69 7.687 7.69c1.862 0 3.552-.695 4.886-1.8c12.986 6.148 40.048 18.478 59.776 24.302l-7.801 55.059q-.033.225-.032.451c0 4.848-21.463 13.754-56.532 13.754c-35.44 0-57.13-8.906-57.13-13.754q0-.22-.028-.435l-16.3-119.062c14.108 9.712 44.454 14.85 73.478 14.85c28.979 0 59.273-5.12 73.41-14.802zM48 65.528c.23-4.21 24.428-20.73 75.2-20.73c50.764 0 74.966 16.516 75.2 20.73v1.437c-2.784 9.443-34.144 19.434-75.2 19.434c-41.127 0-72.503-10.023-75.2-19.479zm156.8.07c0-11.087-31.79-27.2-81.6-27.2c-49.812 0-81.6 16.113-81.6 27.2l.3 2.414l17.754 129.676c.426 14.503 39.1 19.91 63.526 19.91c30.31 0 62.512-6.969 62.928-19.9l7.668-54.07c4.265 1.02 7.776 1.542 10.595 1.542c3.785 0 6.345-.925 7.897-2.774c1.274-1.517 1.76-3.354 1.396-5.31c-.83-4.428-6.087-9.202-16.794-15.311l7.603-53.639z"/></svg></g></g></g><g id="service-s3-hold" class="architecture-service" transform="translate(425.502916846793,-273.5643200759485)"><g dy="1em" alignment-baseline="middle" dominant-baseline="middle" text-anchor="middle" transform="translate(40, 80)"><g><rect class="background" style="stroke: none"/><text y="-10.1" style=""><tspan class="text-outer-tspan" x="0" y="-0.1em" dy="1.1em"><tspan font-style="normal" class="text-inner-tspan" font-weight="normal">Holding</tspan><tspan font-style="normal" class="text-inner-tspan" font-weight="normal"> Bucket</tspan></tspan></text></g></g><g><g><svg xmlns="http://www.w3.org/2000/svg" width="80" height="80" viewBox="0 0 256 256"><defs><linearGradient id="IconifyId19a8745f958e9c2fe2" x1="0%" x2="100%" y1="100%" y2="0%"><stop offset="0%" stop-color="#1B660F"/><stop offset="100%" stop-color="#6CAE3E"/></linearGradient></defs><path fill="url(#IconifyId19a8745f958e9c2fe2)" d="M0 0h256v256H0z"/><path fill="#FFF" d="m194.675 137.256l1.229-8.652c11.33 6.787 11.478 9.59 11.475 9.667c-.02.016-1.952 1.629-12.704-1.015m-6.218-1.728c-19.584-5.926-46.857-18.438-57.894-23.654c0-.045.013-.086.013-.131c0-4.24-3.45-7.69-7.693-7.69c-4.237 0-7.687 3.45-7.687 7.69s3.45 7.69 7.687 7.69c1.862 0 3.552-.695 4.886-1.8c12.986 6.148 40.048 18.478 59.776 24.302l-7.801 55.059q-.033.225-.032.451c0 4.848-21.463 13.754-56.532 13.754c-35.44 0-57.13-8.906-57.13-13.754q0-.22-.028-.435l-16.3-119.062c14.108 9.712 44.454 14.85 73.478 14.85c28.979 0 59.273-5.12 73.41-14.802zM48 65.528c.23-4.21 24.428-20.73 75.2-20.73c50.764 0 74.966 16.516 75.2 20.73v1.437c-2.784 9.443-34.144 19.434-75.2 19.434c-41.127 0-72.503-10.023-75.2-19.479zm156.8.07c0-11.087-31.79-27.2-81.6-27.2c-49.812 0-81.6 16.113-81.6 27.2l.3 2.414l17.754 129.676c.426 14.503 39.1 19.91 63.526 19.91c30.31 0 62.512-6.969 62.928-19.9l7.668-54.07c4.265 1.02 7.776 1.542 10.595 1.542c3.785 0 6.345-.925 7.897-2.774c1.274-1.517 1.76-3.354 1.396-5.31c-.83-4.428-6.087-9.202-16.794-15.311l7.603-53.639z"/></svg></g></g></g><g id="service-s3-train" class="architecture-service" transform="translate(425.502916846793,-77.19617845516527)"><g dy="1em" alignment-baseline="middle" dominant-baseline="middle" text-anchor="middle" transform="translate(40, 80)"><g><rect class="background" style="stroke: none"/><text y="-10.1" style=""><tspan class="text-outer-tspan" x="0" y="-0.1em" dy="1.1em"><tspan font-style="normal" class="text-inner-tspan" font-weight="normal">Training</tspan><tspan font-style="normal" class="text-inner-tspan" font-weight="normal"> Bucket</tspan></tspan></text></g></g><g><g><svg xmlns="http://www.w3.org/2000/svg" width="80" height="80" viewBox="0 0 256 256"><defs><linearGradient id="IconifyId19a8745f958e9c2fe3" x1="0%" x2="100%" y1="100%" y2="0%"><stop offset="0%" stop-color="#1B660F"/><stop offset="100%" stop-color="#6CAE3E"/></linearGradient></defs><path fill="url(#IconifyId19a8745f958e9c2fe3)" d="M0 0h256v256H0z"/><path fill="#FFF" d="m194.675 137.256l1.229-8.652c11.33 6.787 11.478 9.59 11.475 9.667c-.02.016-1.952 1.629-12.704-1.015m-6.218-1.728c-19.584-5.926-46.857-18.438-57.894-23.654c0-.045.013-.086.013-.131c0-4.24-3.45-7.69-7.693-7.69c-4.237 0-7.687 3.45-7.687 7.69s3.45 7.69 7.687 7.69c1.862 0 3.552-.695 4.886-1.8c12.986 6.148 40.048 18.478 59.776 24.302l-7.801 55.059q-.033.225-.032.451c0 4.848-21.463 13.754-56.532 13.754c-35.44 0-57.13-8.906-57.13-13.754q0-.22-.028-.435l-16.3-119.062c14.108 9.712 44.454 14.85 73.478 14.85c28.979 0 59.273-5.12 73.41-14.802zM48 65.528c.23-4.21 24.428-20.73 75.2-20.73c50.764 0 74.966 16.516 75.2 20.73v1.437c-2.784 9.443-34.144 19.434-75.2 19.434c-41.127 0-72.503-10.023-75.2-19.479zm156.8.07c0-11.087-31.79-27.2-81.6-27.2c-49.812 0-81.6 16.113-81.6 27.2l.3 2.414l17.754 129.676c.426 14.503 39.1 19.91 63.526 19.91c30.31 0 62.512-6.969 62.928-19.9l7.668-54.07c4.265 1.02 7.776 1.542 10.595 1.542c3.785 0 6.345-.925 7.897-2.774c1.274-1.517 1.76-3.354 1.396-5.31c-.83-4.428-6.087-9.202-16.794-15.311l7.603-53.639z"/></svg></g></g></g><g id="service-dynamo-db" class="architecture-service" transform="translate(425.502916846793,305.80153206549005)"><g dy="1em" alignment-baseline="middle" dominant-baseline="middle" text-anchor="middle" transform="translate(40, 80)"><g><rect class="background" style="stroke: none"/><text y="-10.1" style=""><tspan class="text-outer-tspan" x="0" y="-0.1em" dy="1.1em"><tspan font-style="normal" class="text-inner-tspan" font-weight="normal">DynamoDB</tspan></tspan></text></g></g><g><g><svg xmlns="http://www.w3.org/2000/svg" width="80" height="80" viewBox="0 0 256 256"><defs><linearGradient id="IconifyId19a8745f958e9c2fe4" x1="0%" x2="100%" y1="100%" y2="0%"><stop offset="0%" stop-color="#2E27AD"/><stop offset="100%" stop-color="#527FFF"/></linearGradient></defs><path fill="url(#IconifyId19a8745f958e9c2fe4)" d="M0 0h256v256H0z"/><path fill="#FFF" d="M166.675 175.52c-10.682 8.637-33.091 13.2-54.534 13.2c-21.447 0-43.863-4.566-54.541-13.202v17.392h.003c0 8.675 22.397 18.342 54.538 18.342c32.115 0 54.499-9.655 54.534-18.323zm.003-33.049l6.4-.035v.035c0 3.866-1.936 7.475-5.705 10.779c4.57 4.021 5.705 7.966 5.705 10.775c0 .02-.003.035-.003.054v28.831h.003c0 16.035-31.398 24.69-60.937 24.69c-29.469 0-60.781-8.617-60.931-24.578c0-.016-.01-.032-.01-.048v-28.958c0-.007.006-.016.006-.026c.01-2.809 1.15-6.738 5.712-10.75c-4.534-4.005-5.686-7.912-5.715-10.699h.003c0-.013-.006-.022-.006-.035v-28.958c0-.01.006-.02.006-.029c.01-2.809 1.152-6.738 5.716-10.743c-4.538-4.009-5.69-7.92-5.719-10.703h.003c0-.012-.006-.025-.006-.038V63.08c0-.01.006-.019.006-.029C51.261 47.04 82.624 38.4 112.141 38.4c16.675 0 32.694 2.65 43.948 7.271l-2.448 5.866c-10.505-4.314-25.632-6.79-41.5-6.79c-32.141 0-54.538 9.668-54.538 18.349c0 8.677 22.397 18.345 54.538 18.345c.867.01 1.715 0 2.573-.032l.268 6.342c-.947.038-1.894.038-2.841.038c-21.447 0-43.863-4.568-54.541-13.204V91.97h.003v.073c.032 3.329 3.447 6.236 6.307 8.083c8.608 5.488 24.032 9.236 41.232 10.014l-.29 6.341c-17.425-.79-32.682-4.405-42.503-9.946c-2.42 1.809-4.746 4.256-4.746 7.03c0 8.677 22.397 18.345 54.538 18.345c3.152 0 6.281-.105 9.305-.315l.445 6.332c-3.168.22-6.451.33-9.75.33c-21.447 0-43.863-4.567-54.541-13.203v17.383h.003c.032 3.403 3.447 6.307 6.307 8.157c9.844 6.281 28.327 10.192 48.23 10.192h1.409v6.347h-1.408c-20.221 0-38.599-3.754-49.837-10.099c-2.406 1.806-4.7 4.24-4.7 6.992c0 8.677 22.396 18.348 54.537 18.348c32.115 0 54.499-9.655 54.534-18.326v-.035c-.006-2.758-2.31-5.192-4.723-6.998a45 45 0 0 1-5.14 2.523l-2.45-5.865c2.323-.955 4.339-1.987 5.993-3.072c2.886-1.883 6.323-4.825 6.323-8.129m27.411-46.418h-17.932c-1.06 0-2.055-.52-2.647-1.39a3.14 3.14 0 0 1-.33-2.951l10.91-27.27h-41.31l-19.2 38.086h20.423c1.02 0 1.98.486 2.586 1.301c.598.82.774 1.87.464 2.838l-18.228 56.818zm9.821-.974l-79.996 82.648a3.22 3.22 0 0 1-2.31.974a3.2 3.2 0 0 1-1.636-.444a3.16 3.16 0 0 1-1.414-3.692l21.075-65.69h-21.226a3.21 3.21 0 0 1-2.723-1.504a3.15 3.15 0 0 1-.138-3.088l22.4-44.434a3.2 3.2 0 0 1 2.861-1.755h48a3.21 3.21 0 0 1 2.646 1.39a3.15 3.15 0 0 1 .33 2.955L180.87 89.706h20.73c1.28 0 2.441.761 2.944 1.93a3.16 3.16 0 0 1-.634 3.443M62.256 194.158c4.534 2.555 10.243 4.703 16.966 6.38l1.562-6.158c-6.077-1.514-11.389-3.5-15.366-5.742zm16.966-44.403l1.562-6.154c-6.077-1.517-11.389-3.504-15.366-5.745l-3.162 5.52c4.534 2.555 10.24 4.704 16.966 6.38M62.256 92.594l3.162-5.52c3.97 2.241 9.286 4.225 15.366 5.745l-1.562 6.154c-6.732-1.679-12.438-3.827-16.966-6.38"/></svg></g></g></g><g class="architecture-junction" transform="translate(33.793815851573605,-471.28970176209054)"><g><rect id="node-jun1" fill-opacity="0" width="80" height="80"/></g></g><g class="architecture-junction" transform="translate(33.793815851573605,-273.5643200759485)"><g><rect id="node-jun2" fill-opacity="0" width="80" height="80"/></g></g><g class="architecture-junction" transform="translate(33.793815851573605,-77.19617845516527)"><g><rect id="node-jun3" fill-opacity="0" width="80" height="80"/></g></g><g class="architecture-junction" transform="translate(33.793815851573605,107.31296620939861)"><g><rect id="node-jun4" fill-opacity="0" width="80" height="80"/></g></g><g class="architecture-junction" transform="translate(33.793815851573605,305.80153206549005)"><g><rect id="node-jun5" fill-opacity="0" width="80" height="80"/></g></g><g class="architecture-junction" transform="translate(33.793815851573605,505.28970176209066)"><g><rect id="node-jun6" fill-opacity="0" width="80" height="80"/></g></g></g><g class="architecture-groups"><rect id="group-system" x="-217.5304089594157" y="-513.7897017620905" width="782.0333258062087" height="1158.579403524181" class="node-bkg"/><g><g dy="1em" alignment-baseline="middle" dominant-baseline="start" text-anchor="start" transform="translate(-213.5304089594157, -511.78970176209054)"><g><rect class="background" style="stroke: none"/><text y="-10.1" style=""><tspan class="text-outer-tspan" x="0" y="-0.1em" dy="1.1em"><tspan font-style="normal" class="text-inner-tspan" font-weight="normal">System</tspan></tspan></text></g></g></g></g></svg>